<svg width="639" height="388" viewBox="0 0 639 388" fill="none" xmlns="http://www.w3.org/2000/svg">
<rect width="639" height="388" fill="#E3E3E3"/>
<rect width="639" height="388" fill="#FDF8F8"/>
<path d="M66.5 49C66.5 47.6193 65.3807 46.5 64 46.5C62.6193 46.5 61.5 47.6193 61.5 49L64 49L66.5 49ZM64 49L61.5 49L61.5 335L64 335L66.5 335L66.5 49L64 49Z" fill="#CCCCCC"/>
<path d="M600.5 335C601.881 335 603 333.881 603 332.5C603 331.119 601.881 330 600.5 330V332.5V335ZM600.5 332.5V330L64.5 330V332.5V335L600.5 335V332.5Z" fill="#CCCCCC"/>
<path d="M314.744 362V352.352H311.448V350.8H319.944V352.352H316.648V362H314.744ZM320.346 362V353.936H322.058L322.234 355.44C322.426 355.088 322.666 354.789 322.954 354.544C323.242 354.288 323.578 354.091 323.962 353.952C324.356 353.813 324.788 353.744 325.258 353.744V355.776H324.586C324.266 355.776 323.962 355.819 323.674 355.904C323.386 355.979 323.135 356.107 322.922 356.288C322.719 356.459 322.559 356.699 322.442 357.008C322.324 357.307 322.266 357.685 322.266 358.144V362H320.346ZM329.377 362.192C328.726 362.192 328.166 362.064 327.697 361.808C327.238 361.541 326.886 361.147 326.641 360.624C326.396 360.091 326.273 359.435 326.273 358.656V353.936H328.193V358.464C328.193 359.157 328.337 359.685 328.625 360.048C328.924 360.4 329.372 360.576 329.969 360.576C330.353 360.576 330.694 360.485 330.993 360.304C331.302 360.123 331.542 359.861 331.713 359.52C331.894 359.168 331.985 358.741 331.985 358.24V353.936H333.905V362H332.209L332.065 360.656C331.82 361.125 331.462 361.499 330.993 361.776C330.534 362.053 329.996 362.192 329.377 362.192ZM338.937 362.192C338.223 362.192 337.599 362.08 337.065 361.856C336.543 361.621 336.127 361.301 335.817 360.896C335.519 360.48 335.343 360.005 335.289 359.472H337.209C337.263 359.696 337.359 359.904 337.497 360.096C337.636 360.277 337.823 360.421 338.057 360.528C338.303 360.635 338.591 360.688 338.921 360.688C339.241 360.688 339.503 360.645 339.705 360.56C339.908 360.464 340.057 360.341 340.153 360.192C340.249 360.043 340.297 359.883 340.297 359.712C340.297 359.456 340.228 359.259 340.089 359.12C339.951 358.981 339.748 358.875 339.481 358.8C339.225 358.715 338.916 358.635 338.553 358.56C338.169 358.485 337.796 358.395 337.433 358.288C337.081 358.171 336.761 358.027 336.473 357.856C336.196 357.685 335.972 357.467 335.801 357.2C335.641 356.933 335.561 356.608 335.561 356.224C335.561 355.755 335.684 355.333 335.929 354.96C336.185 354.587 336.548 354.293 337.017 354.08C337.497 353.856 338.068 353.744 338.729 353.744C339.668 353.744 340.415 353.963 340.969 354.4C341.535 354.827 341.865 355.429 341.961 356.208H340.137C340.084 355.909 339.935 355.68 339.689 355.52C339.444 355.349 339.119 355.264 338.713 355.264C338.297 355.264 337.977 355.344 337.753 355.504C337.54 355.653 337.433 355.856 337.433 356.112C337.433 356.272 337.497 356.421 337.625 356.56C337.764 356.688 337.961 356.8 338.217 356.896C338.473 356.981 338.788 357.067 339.161 357.152C339.759 357.269 340.287 357.408 340.745 357.568C341.204 357.728 341.567 357.963 341.833 358.272C342.1 358.581 342.233 359.019 342.233 359.584C342.244 360.096 342.111 360.549 341.833 360.944C341.567 361.339 341.188 361.648 340.697 361.872C340.207 362.085 339.62 362.192 338.937 362.192ZM346.999 362C346.455 362 345.98 361.915 345.575 361.744C345.18 361.573 344.871 361.291 344.647 360.896C344.423 360.501 344.311 359.968 344.311 359.296V355.552H342.935V353.936H344.311L344.535 351.808H346.231V353.936H348.423V355.552H346.231V359.296C346.231 359.701 346.316 359.984 346.487 360.144C346.668 360.293 346.967 360.368 347.383 360.368H348.375V362H346.999Z" fill="black"/>
<path d="M40.192 203.104C40.192 203.915 40.048 204.635 39.76 205.264C39.472 205.893 39.0613 206.384 38.528 206.736C37.9947 207.088 37.36 207.269 36.624 207.28L36.624 205.248C36.9973 205.248 37.3333 205.163 37.632 204.992C37.92 204.811 38.1493 204.565 38.32 204.256C38.4907 203.936 38.576 203.552 38.576 203.104C38.576 202.72 38.5173 202.389 38.4 202.112C38.272 201.824 38.096 201.605 37.872 201.456C37.6373 201.296 37.3653 201.216 37.056 201.216C36.704 201.216 36.416 201.301 36.192 201.472C35.9573 201.632 35.76 201.856 35.6 202.144C35.44 202.432 35.3013 202.763 35.184 203.136C35.056 203.509 34.9227 203.904 34.784 204.32C34.4853 205.205 34.1067 205.872 33.648 206.32C33.1787 206.768 32.5547 206.992 31.776 206.992C31.1253 206.992 30.5653 206.837 30.096 206.528C29.6267 206.219 29.264 205.787 29.008 205.232C28.7413 204.667 28.608 204.016 28.608 203.28C28.608 202.533 28.7413 201.883 29.008 201.328C29.2747 200.763 29.648 200.32 30.128 200C30.5973 199.669 31.1627 199.499 31.824 199.488L31.824 201.536C31.5467 201.547 31.2907 201.621 31.056 201.76C30.8107 201.899 30.6133 202.101 30.464 202.368C30.304 202.624 30.224 202.939 30.224 203.312C30.2133 203.632 30.2667 203.92 30.384 204.176C30.4907 204.421 30.6507 204.619 30.864 204.768C31.0667 204.907 31.3227 204.976 31.632 204.976C31.9307 204.976 32.1813 204.912 32.384 204.784C32.576 204.645 32.7413 204.448 32.88 204.192C33.008 203.936 33.1307 203.637 33.248 203.296C33.3653 202.955 33.4933 202.581 33.632 202.176C33.8133 201.621 34.0373 201.12 34.304 200.672C34.56 200.213 34.896 199.851 35.312 199.584C35.728 199.317 36.2667 199.184 36.928 199.184C37.504 199.184 38.0427 199.333 38.544 199.632C39.0347 199.931 39.4347 200.368 39.744 200.944C40.0427 201.52 40.192 202.24 40.192 203.104ZM43.52 197.701L31.936 197.701L31.936 195.989L33.104 195.781C32.8693 195.61 32.6507 195.408 32.448 195.173C32.2347 194.928 32.064 194.634 31.936 194.293C31.808 193.941 31.744 193.541 31.744 193.093C31.744 192.336 31.9307 191.669 32.304 191.093C32.6773 190.506 33.184 190.048 33.824 189.717C34.4533 189.386 35.1733 189.221 35.984 189.221C36.7947 189.221 37.52 189.392 38.16 189.733C38.7893 190.064 39.2853 190.522 39.648 191.109C40.0107 191.685 40.192 192.346 40.192 193.093C40.192 193.701 40.08 194.234 39.856 194.693C39.6213 195.141 39.2907 195.504 38.864 195.781L43.52 195.781L43.52 197.701ZM38.528 193.493C38.528 193.045 38.4213 192.645 38.208 192.293C37.9947 191.941 37.696 191.669 37.312 191.477C36.928 191.274 36.4853 191.173 35.984 191.173C35.472 191.173 35.024 191.274 34.64 191.477C34.256 191.669 33.9573 191.941 33.744 192.293C33.5307 192.645 33.424 193.045 33.424 193.493C33.424 193.952 33.5307 194.357 33.744 194.709C33.9573 195.05 34.256 195.322 34.64 195.525C35.024 195.717 35.4667 195.813 35.968 195.813C36.48 195.813 36.928 195.717 37.312 195.525C37.6853 195.322 37.984 195.05 38.208 194.709C38.4213 194.357 38.528 193.952 38.528 193.493ZM40.192 183.901C40.192 184.691 40.0213 185.395 39.68 186.013C39.328 186.621 38.8427 187.101 38.224 187.453C37.5947 187.795 36.864 187.965 36.032 187.965C35.1893 187.965 34.4533 187.795 33.824 187.453C33.184 187.112 32.6827 186.637 32.32 186.029C31.9573 185.411 31.776 184.696 31.776 183.885C31.776 183.096 31.952 182.408 32.304 181.821C32.6453 181.235 33.1147 180.781 33.712 180.461C34.2987 180.141 34.9547 179.981 35.68 179.981C35.7867 179.981 35.904 179.981 36.032 179.981C36.16 179.981 36.2987 179.987 36.448 179.997L36.448 186.573L35.216 186.573L35.216 181.901C34.6293 181.933 34.1707 182.136 33.84 182.509C33.5093 182.883 33.344 183.347 33.344 183.901C33.344 184.296 33.4347 184.659 33.616 184.989C33.7973 185.32 34.064 185.587 34.416 185.789C34.768 185.981 35.216 186.077 35.76 186.077L36.224 186.077C36.7253 186.077 37.1573 185.981 37.52 185.789C37.872 185.597 38.144 185.341 38.336 185.021C38.5173 184.691 38.608 184.323 38.608 183.917C38.608 183.469 38.512 183.101 38.32 182.813C38.128 182.515 37.872 182.291 37.552 182.141L37.552 180.205C38.0533 180.355 38.5013 180.6 38.896 180.941C39.2907 181.283 39.6053 181.704 39.84 182.205C40.0747 182.707 40.192 183.272 40.192 183.901ZM40.192 174.753C40.192 175.542 40.0213 176.246 39.68 176.865C39.328 177.473 38.8427 177.953 38.224 178.305C37.5947 178.646 36.864 178.817 36.032 178.817C35.1893 178.817 34.4533 178.646 33.824 178.305C33.184 177.963 32.6827 177.489 32.32 176.881C31.9573 176.262 31.776 175.547 31.776 174.737C31.776 173.947 31.952 173.259 32.304 172.673C32.6453 172.086 33.1147 171.633 33.712 171.313C34.2987 170.993 34.9547 170.833 35.68 170.833C35.7867 170.833 35.904 170.833 36.032 170.833C36.16 170.833 36.2987 170.838 36.448 170.849L36.448 177.425L35.216 177.425L35.216 172.753C34.6293 172.785 34.1707 172.987 33.84 173.361C33.5093 173.734 33.344 174.198 33.344 174.753C33.344 175.147 33.4347 175.51 33.616 175.841C33.7973 176.171 34.064 176.438 34.416 176.641C34.768 176.833 35.216 176.929 35.76 176.929L36.224 176.929C36.7253 176.929 37.1573 176.833 37.52 176.641C37.872 176.449 38.144 176.193 38.336 175.873C38.5173 175.542 38.608 175.174 38.608 174.769C38.608 174.321 38.512 173.953 38.32 173.665C38.128 173.366 37.872 173.142 37.552 172.993L37.552 171.057C38.0533 171.206 38.5013 171.451 38.896 171.793C39.2907 172.134 39.6053 172.555 39.84 173.057C40.0747 173.558 40.192 174.123 40.192 174.753ZM40.192 165.796C40.192 166.543 40.0107 167.209 39.648 167.796C39.2853 168.383 38.784 168.841 38.144 169.172C37.504 169.492 36.7787 169.652 35.968 169.652C35.1573 169.652 34.4373 169.487 33.808 169.156C33.168 168.825 32.6667 168.367 32.304 167.78C31.9307 167.183 31.744 166.511 31.744 165.764C31.744 165.156 31.8613 164.628 32.096 164.18C32.32 163.721 32.64 163.359 33.056 163.092L28.48 163.092L28.48 161.172L40 161.172L40 162.9L38.832 163.092C39.0667 163.263 39.2907 163.471 39.504 163.716C39.7067 163.961 39.872 164.255 40 164.596C40.128 164.937 40.192 165.337 40.192 165.796ZM38.528 165.396C38.528 164.937 38.4213 164.532 38.208 164.18C37.984 163.828 37.68 163.556 37.296 163.364C36.912 163.172 36.4693 163.076 35.968 163.076C35.4667 163.076 35.024 163.172 34.64 163.364C34.256 163.556 33.9573 163.828 33.744 164.18C33.5307 164.532 33.424 164.937 33.424 165.396C33.424 165.833 33.5307 166.228 33.744 166.58C33.9573 166.932 34.256 167.209 34.64 167.412C35.024 167.604 35.4667 167.7 35.968 167.7C36.4693 167.7 36.912 167.604 37.296 167.412C37.68 167.209 37.984 166.932 38.208 166.58C38.4213 166.228 38.528 165.833 38.528 165.396Z" fill="black"/>
<path d="M99 80C196.577 201.55 410.641 280.479 571 301" stroke="url(#paint0_linear_5729_9862)" stroke-width="8" stroke-linecap="round"/>
<defs>
<linearGradient id="paint0_linear_5729_9862" x1="571" y1="301" x2="75.9451" y2="160.795" gradientUnits="userSpaceOnUse">
<stop stop-color="#00ABD2"/>
<stop offset="1" stop-color="#15B2D5" stop-opacity="0.3"/>
</linearGradient>
</defs>
</svg>
