<svg width="254" height="122" viewBox="0 0 254 122" fill="none" xmlns="http://www.w3.org/2000/svg">
<g clip-path="url(#clip0_6417_14224)">
<rect width="254" height="122" fill="#121110"/>
<g opacity="0.4">
<g opacity="0.3">
<circle cx="7.5" cy="118.5" r="47.5" fill="url(#paint0_radial_6417_14224)"/>
<circle cx="7.5" cy="118.5" r="47.5" fill="#8CDB6D" style="mix-blend-mode:plus-darker"/>
</g>
<g clip-path="url(#clip1_6417_14224)">
<path d="M20.3379 119.934L12.6055 117.155L9.374 113.097C9.09291 112.753 8.73884 112.476 8.3375 112.287C7.93616 112.097 7.49761 111.999 7.0537 112H-0.942399C-1.43138 112 -1.913 112.119 -2.34526 112.348C-2.77752 112.576 -3.14731 112.907 -3.4224 113.312L-6.1338 117.295C-6.69879 118.124 -7.00066 119.104 -7 120.107V128C-7 128.265 -6.89464 128.52 -6.70711 128.707C-6.51957 128.895 -6.26522 129 -6 129H-3.8579C-3.63985 129.858 -3.14216 130.618 -2.4435 131.162C-1.74483 131.705 -0.885035 132 9.53674e-07 132C0.885037 132 1.74483 131.705 2.4435 131.162C3.14217 130.618 3.63985 129.858 3.8579 129H10.1421C10.3601 129.858 10.8578 130.618 11.5565 131.162C12.2552 131.705 13.115 132 14 132C14.885 132 15.7448 131.705 16.4435 131.162C17.1422 130.618 17.6399 129.858 17.8579 129H20C20.2652 129 20.5196 128.895 20.7071 128.707C20.8946 128.52 21 128.265 21 128V120.875C21 120.669 20.9365 120.468 20.818 120.3C20.6994 120.131 20.5318 120.003 20.3379 119.934ZM9.53674e-07 130C-0.395562 130 -0.782241 129.883 -1.11114 129.663C-1.44004 129.443 -1.69638 129.131 -1.84776 128.765C-1.99913 128.4 -2.03874 127.998 -1.96157 127.61C-1.8844 127.222 -1.69392 126.865 -1.41421 126.586C-1.13451 126.306 -0.778142 126.116 -0.39018 126.038C-0.00221762 125.961 0.399915 126.001 0.765368 126.152C1.13082 126.304 1.44318 126.56 1.66294 126.889C1.8827 127.218 2 127.604 2 128C1.99929 128.53 1.78834 129.039 1.41343 129.413C1.03851 129.788 0.530215 129.999 9.53674e-07 130ZM14 130C13.6044 130 13.2178 129.883 12.8889 129.663C12.56 129.443 12.3036 129.131 12.1522 128.765C12.0009 128.4 11.9613 127.998 12.0384 127.61C12.1156 127.222 12.3061 126.865 12.5858 126.586C12.8655 126.306 13.2219 126.116 13.6098 126.038C13.9978 125.961 14.3999 126.001 14.7654 126.152C15.1308 126.304 15.4432 126.56 15.6629 126.889C15.8827 127.218 16 127.604 16 128C15.9993 128.53 15.7884 129.039 15.4135 129.413C15.0386 129.788 14.5302 129.999 14 130ZM19 127H17.8579C17.6399 126.142 17.1422 125.382 16.4435 124.838C15.7448 124.295 14.885 124 14 124C13.115 124 12.2552 124.295 11.5565 124.838C10.8578 125.382 10.3601 126.142 10.1421 127H3.8579C3.63985 126.142 3.14217 125.382 2.4435 124.838C1.74483 124.295 0.885037 124 9.53674e-07 124C-0.885035 124 -1.74483 124.295 -2.4435 124.838C-3.14216 125.382 -3.63985 126.142 -3.8579 127H-5V120.107C-5.00023 119.505 -4.81902 118.917 -4.48 118.419L-1.769 114.438C-1.67736 114.303 -1.55413 114.192 -1.41005 114.116C-1.26597 114.04 -1.10542 114 -0.942399 114H7.0537C7.19936 113.999 7.34338 114.031 7.47554 114.092C7.60769 114.153 7.72475 114.243 7.8184 114.355L11.2178 118.623C11.3335 118.768 11.4873 118.879 11.6621 118.941L19 121.578V127Z" fill="#8CDB6D"/>
</g>
</g>
<g opacity="0.4">
<g opacity="0.3">
<circle cx="69.5" cy="-13.5" r="57.5" fill="url(#paint1_radial_6417_14224)"/>
<circle cx="69.5" cy="-13.5" r="57.5" fill="#FF1B50" style="mix-blend-mode:plus-darker"/>
</g>
<g clip-path="url(#clip2_6417_14224)">
<path d="M85 -18.5H82.5V-26C82.4992 -26.6628 82.2356 -27.2983 81.7669 -27.7669C81.2983 -28.2356 80.6628 -28.4992 80 -28.5H60C59.3372 -28.4992 58.7017 -28.2356 58.2331 -27.7669C57.7644 -27.2983 57.5008 -26.6628 57.5 -26V-18.5H55C54.3372 -18.4992 53.7017 -18.2356 53.2331 -17.7669C52.7644 -17.2982 52.5008 -16.6628 52.5 -16V6.5H87.5V-16C87.4992 -16.6628 87.2356 -17.2982 86.7669 -17.7669C86.2983 -18.2356 85.6628 -18.4992 85 -18.5ZM67.5 4V-3.5H72.5V4H67.5ZM75 4V-4.75C75 -5.08152 74.8683 -5.39946 74.6339 -5.63388C74.3995 -5.8683 74.0815 -6 73.75 -6H66.25C65.9185 -6 65.6005 -5.8683 65.3661 -5.63388C65.1317 -5.39946 65 -5.08152 65 -4.75V4H55V-16H60V-26H80V-16H85V4H75Z" fill="#FF5961"/>
</g>
</g>
<g opacity="0.4">
<g opacity="0.3">
<circle cx="248.5" cy="120.5" r="33.5" fill="url(#paint2_radial_6417_14224)"/>
<circle cx="248.5" cy="120.5" r="33.5" fill="#0ACEFF" style="mix-blend-mode:plus-darker"/>
</g>
<g clip-path="url(#clip3_6417_14224)">
<path d="M243.828 120.781C244.041 120.781 244.25 120.844 244.427 120.963C244.604 121.081 244.743 121.25 244.824 121.447C244.906 121.644 244.927 121.861 244.886 122.07C244.844 122.279 244.741 122.471 244.59 122.622C244.44 122.773 244.248 122.875 244.038 122.917C243.829 122.958 243.613 122.937 243.416 122.855C243.219 122.774 243.05 122.636 242.932 122.458C242.813 122.281 242.75 122.073 242.75 121.859C242.75 121.573 242.864 121.299 243.066 121.097C243.268 120.895 243.542 120.781 243.828 120.781ZM243.828 119.344C243.331 119.344 242.844 119.491 242.431 119.768C242.017 120.044 241.694 120.437 241.504 120.897C241.314 121.356 241.264 121.862 241.361 122.35C241.458 122.838 241.697 123.286 242.049 123.638C242.401 123.99 242.849 124.23 243.337 124.327C243.825 124.424 244.331 124.374 244.791 124.184C245.25 123.993 245.643 123.671 245.92 123.257C246.196 122.843 246.344 122.357 246.344 121.859C246.344 121.192 246.079 120.552 245.607 120.081C245.135 119.609 244.495 119.344 243.828 119.344Z" fill="#33DEF8"/>
<path d="M254.969 120.063H249.219C248.838 120.063 248.472 120.214 248.202 120.484C247.933 120.753 247.781 121.119 247.781 121.5V125.813H239.875V117.619L248.5 112.976L257.506 117.82L258.182 116.555L248.838 111.524C248.734 111.468 248.618 111.439 248.5 111.439C248.382 111.439 248.266 111.468 248.162 111.524L238.818 116.555C238.704 116.616 238.608 116.707 238.541 116.819C238.473 116.93 238.438 117.058 238.438 117.188V131.563H239.875V127.25H257.125V131.563H258.562V123.656C258.562 122.703 258.184 121.789 257.51 121.115C256.836 120.441 255.922 120.063 254.969 120.063ZM249.219 125.813V121.5H254.969C255.541 121.5 256.089 121.727 256.493 122.132C256.898 122.536 257.125 123.084 257.125 123.656V125.813H249.219Z" fill="#33DEF8"/>
</g>
</g>
<path d="M39 33L39 78" stroke="#FAD728" stroke-width="2" stroke-linecap="round"/>
<path opacity="0.8" d="M47 33L47 72" stroke="#FAD728" stroke-width="2" stroke-linecap="round"/>
<path opacity="0.8" d="M55 33L55 72" stroke="#FAD728" stroke-width="2" stroke-linecap="round"/>
<path opacity="0.8" d="M63 33L63 72" stroke="#FAD728" stroke-width="2" stroke-linecap="round"/>
<path opacity="0.8" d="M71 33L71 72" stroke="#FAD728" stroke-width="2" stroke-linecap="round"/>
<path opacity="0.8" d="M79 33L79 72" stroke="#FAD728" stroke-width="2" stroke-linecap="round"/>
<path opacity="0.8" d="M87 33L87 72" stroke="#FAD728" stroke-width="2" stroke-linecap="round"/>
<path opacity="0.8" d="M95 33L95 72" stroke="#FAD728" stroke-width="2" stroke-linecap="round"/>
<path opacity="0.8" d="M103 33L103 72" stroke="#FAD728" stroke-width="2" stroke-linecap="round"/>
<path opacity="0.8" d="M111 33L111 72" stroke="#FAD728" stroke-width="2" stroke-linecap="round"/>
<path opacity="0.8" d="M119 33L119 72" stroke="#FAD728" stroke-width="2" stroke-linecap="round"/>
<path opacity="0.8" d="M127 33L127 72" stroke="#FAD728" stroke-width="2" stroke-linecap="round"/>
<path opacity="0.8" d="M135 33L135 72" stroke="#FAD728" stroke-width="2" stroke-linecap="round"/>
<path opacity="0.8" d="M143 33L143 72" stroke="#FAD728" stroke-width="2" stroke-linecap="round"/>
<path opacity="0.8" d="M151 33L151 72" stroke="#FAD728" stroke-width="2" stroke-linecap="round"/>
<path opacity="0.8" d="M159 33L159 72" stroke="#FAD728" stroke-width="2" stroke-linecap="round"/>
<path opacity="0.8" d="M167 33L167 72" stroke="#FAD728" stroke-width="2" stroke-linecap="round"/>
<path opacity="0.8" d="M175 33L175 72" stroke="#FAD728" stroke-width="2" stroke-linecap="round"/>
<path d="M183 33L183 78" stroke="#FAD728" stroke-width="2" stroke-linecap="round"/>
<path opacity="0.8" d="M191 33L191 72" stroke="#949494" stroke-width="2" stroke-linecap="round"/>
<path opacity="0.7" d="M199 33L199 72" stroke="#949494" stroke-width="2" stroke-linecap="round"/>
<path opacity="0.6" d="M207 33L207 72" stroke="#949494" stroke-width="2" stroke-linecap="round"/>
<path opacity="0.5" d="M215 33L215 72" stroke="#949494" stroke-width="2" stroke-linecap="round"/>
<path opacity="0.4" d="M223 33L223 72" stroke="#949494" stroke-width="2" stroke-linecap="round"/>
<path opacity="0.3" d="M231 33L231 72" stroke="#949494" stroke-width="2" stroke-linecap="round"/>
<path opacity="0.2" d="M239 33L239 72" stroke="#949494" stroke-width="2" stroke-linecap="round"/>
<path opacity="0.1" d="M247 33L247 72" stroke="#949494" stroke-width="2" stroke-linecap="round"/>
<path d="M27.13 97.168C26.318 97.168 25.6227 97.0187 25.044 96.72C24.4653 96.412 23.9707 96.0107 23.56 95.516L24.666 94.494C25.002 94.914 25.3753 95.2313 25.786 95.446C26.206 95.6607 26.682 95.768 27.214 95.768C27.8393 95.768 28.3107 95.628 28.628 95.348C28.9453 95.0587 29.104 94.6807 29.104 94.214C29.104 93.962 29.0573 93.7427 28.964 93.556C28.8707 93.3693 28.712 93.2153 28.488 93.094C28.264 92.9727 27.9653 92.8747 27.592 92.8L26.724 92.646C26.0893 92.5247 25.5573 92.3473 25.128 92.114C24.708 91.8807 24.3907 91.5773 24.176 91.204C23.9613 90.8213 23.854 90.3733 23.854 89.86C23.854 89.2813 23.994 88.782 24.274 88.362C24.554 87.942 24.9507 87.62 25.464 87.396C25.9867 87.172 26.5933 87.06 27.284 87.06C28.0213 87.06 28.6607 87.1907 29.202 87.452C29.7433 87.704 30.2007 88.0727 30.574 88.558L29.468 89.538C29.216 89.2113 28.908 88.95 28.544 88.754C28.18 88.558 27.7273 88.46 27.186 88.46C26.626 88.46 26.192 88.572 25.884 88.796C25.5853 89.02 25.436 89.3467 25.436 89.776C25.436 90.0467 25.492 90.2707 25.604 90.448C25.716 90.6253 25.884 90.77 26.108 90.882C26.3413 90.994 26.6307 91.0827 26.976 91.148L27.844 91.33C28.4973 91.4513 29.034 91.6333 29.454 91.876C29.874 92.1187 30.182 92.4267 30.378 92.8C30.5833 93.164 30.686 93.6073 30.686 94.13C30.686 94.7367 30.546 95.2687 30.266 95.726C29.986 96.174 29.58 96.5287 29.048 96.79C28.516 97.042 27.8767 97.168 27.13 97.168ZM35.7915 97H34.4615C33.9388 97 33.5375 96.86 33.2575 96.58C32.9868 96.2907 32.8515 95.8987 32.8515 95.404V90.966H31.7175V89.72H32.3335C32.5855 89.72 32.7582 89.664 32.8515 89.552C32.9542 89.44 33.0055 89.258 33.0055 89.006V87.732H34.3775V89.72H35.9035V90.966H34.3775V95.754H35.7915V97ZM43.7468 97H42.8928C42.6128 97 42.3701 96.9393 42.1648 96.818C41.9688 96.6873 41.8195 96.5053 41.7168 96.272C41.6141 96.0387 41.5628 95.7633 41.5628 95.446V95.32L41.9968 95.782H41.5068C41.3668 96.23 41.1101 96.5753 40.7368 96.818C40.3635 97.0513 39.9108 97.168 39.3788 97.168C38.6321 97.168 38.0535 96.972 37.6428 96.58C37.2321 96.188 37.0268 95.6607 37.0268 94.998C37.0268 94.5127 37.1435 94.1113 37.3768 93.794C37.6195 93.4673 37.9695 93.2247 38.4268 93.066C38.8841 92.898 39.4535 92.814 40.1348 92.814H41.4508V92.198C41.4508 91.7593 41.3295 91.4187 41.0868 91.176C40.8441 90.924 40.4661 90.798 39.9528 90.798C39.5328 90.798 39.1828 90.896 38.9028 91.092C38.6321 91.2787 38.4035 91.512 38.2168 91.792L37.3068 90.966C37.5495 90.5553 37.8901 90.2193 38.3288 89.958C38.7768 89.6873 39.3508 89.552 40.0508 89.552C40.9841 89.552 41.7028 89.776 42.2068 90.224C42.7201 90.6627 42.9768 91.288 42.9768 92.1V95.754H43.7468V97ZM41.4508 93.794H40.1628C39.6308 93.794 39.2341 93.878 38.9728 94.046C38.7115 94.214 38.5808 94.4567 38.5808 94.774V95.026C38.5808 95.3433 38.6928 95.586 38.9168 95.754C39.1408 95.922 39.4395 96.006 39.8128 96.006C40.1301 96.006 40.4101 95.9593 40.6528 95.866C40.8955 95.7727 41.0868 95.6373 41.2268 95.46C41.3761 95.2827 41.4508 95.0773 41.4508 94.844V93.794ZM46.7684 97H45.2424V89.72H46.7684V91.162H46.8384C46.9131 90.9193 47.0297 90.6907 47.1884 90.476C47.3564 90.252 47.5757 90.07 47.8464 89.93C48.1171 89.79 48.4484 89.72 48.8404 89.72H49.2464V91.19H48.6444C48.2431 91.19 47.9024 91.2367 47.6224 91.33C47.3424 91.4233 47.1277 91.554 46.9784 91.722C46.8384 91.89 46.7684 92.1 46.7684 92.352V97ZM54.0025 97H52.6725C52.1498 97 51.7485 96.86 51.4685 96.58C51.1978 96.2907 51.0625 95.8987 51.0625 95.404V90.966H49.9285V89.72H50.5445C50.7965 89.72 50.9691 89.664 51.0625 89.552C51.1651 89.44 51.2165 89.258 51.2165 89.006V87.732H52.5885V89.72H54.1145V90.966H52.5885V95.754H54.0025V97Z" fill="#FAD728"/>
<path d="M177.854 97H171.274V95.684H173.962V88.376H173.85L171.582 90.798L170.616 89.93L173.094 87.228H175.53V95.684H177.854V97ZM182.795 97V86.64H184.321V90.924H184.391C184.55 90.532 184.788 90.2053 185.105 89.944C185.432 89.6827 185.875 89.552 186.435 89.552C187.182 89.552 187.76 89.7993 188.171 90.294C188.591 90.7887 188.801 91.484 188.801 92.38V97H187.275V92.562C187.275 91.9927 187.163 91.568 186.939 91.288C186.724 90.9987 186.379 90.854 185.903 90.854C185.632 90.854 185.376 90.9007 185.133 90.994C184.9 91.078 184.704 91.2133 184.545 91.4C184.396 91.5867 184.321 91.82 184.321 92.1V97H182.795ZM192.442 97H190.916V89.72H192.442V91.162H192.512C192.587 90.9193 192.704 90.6907 192.862 90.476C193.03 90.252 193.25 90.07 193.52 89.93C193.791 89.79 194.122 89.72 194.514 89.72H194.92V91.19H194.318C193.917 91.19 193.576 91.2367 193.296 91.33C193.016 91.4233 192.802 91.554 192.652 91.722C192.512 91.89 192.442 92.1 192.442 92.352V97Z" fill="#FAD728"/>
</g>
<defs>
<radialGradient id="paint0_radial_6417_14224" cx="0" cy="0" r="1" gradientUnits="userSpaceOnUse" gradientTransform="translate(7.5 118.5) rotate(90) scale(47.5)">
<stop offset="0.463347" stop-color="white" stop-opacity="0"/>
<stop offset="0.933071" stop-color="white" stop-opacity="0.5"/>
<stop offset="1" stop-color="white"/>
</radialGradient>
<radialGradient id="paint1_radial_6417_14224" cx="0" cy="0" r="1" gradientUnits="userSpaceOnUse" gradientTransform="translate(69.5 -13.5) rotate(90) scale(57.5)">
<stop offset="0.463347" stop-color="white" stop-opacity="0"/>
<stop offset="0.933071" stop-color="white" stop-opacity="0.5"/>
<stop offset="1" stop-color="white"/>
</radialGradient>
<radialGradient id="paint2_radial_6417_14224" cx="0" cy="0" r="1" gradientUnits="userSpaceOnUse" gradientTransform="translate(248.5 120.5) rotate(90) scale(33.5)">
<stop offset="0.463347" stop-color="white" stop-opacity="0"/>
<stop offset="0.933071" stop-color="white" stop-opacity="0.5"/>
<stop offset="1" stop-color="white"/>
</radialGradient>
<clipPath id="clip0_6417_14224">
<rect width="254" height="122" fill="white"/>
</clipPath>
<clipPath id="clip1_6417_14224">
<rect width="32" height="32" fill="white" transform="translate(-9 104)"/>
</clipPath>
<clipPath id="clip2_6417_14224">
<rect width="40" height="40" fill="white" transform="translate(50 -31)"/>
</clipPath>
<clipPath id="clip3_6417_14224">
<rect width="23" height="23" fill="white" transform="translate(237 110)"/>
</clipPath>
</defs>
</svg>
