<svg width="293" height="293" viewBox="0 0 293 293" fill="none" xmlns="http://www.w3.org/2000/svg">
<g clip-path="url(#clip0_3803_22650)">
<path d="M181.024 287.146C134.63 287.146 113.186 266.837 85.7627 235.852C78.0348 227.127 54.311 201.425 54.311 201.425L49.7237 196.352C38.5805 184.092 33.334 177.875 33.334 173.837C33.334 168.884 36.7584 164.479 42.9664 161.412C53.844 156.047 71.6163 155.497 82.5122 163.875C90.707 170.175 107.023 187.782 115.74 197.414V64.0995C115.74 51.3906 124.603 42.5182 137.294 42.4907C137.294 42.4907 137.294 42.4907 137.303 42.4907C137.303 42.4907 137.312 42.4907 137.331 42.4907C137.34 42.4907 137.349 42.4907 137.358 42.4907C150.085 42.5182 158.958 51.3906 158.958 64.0995V134.053H218.949C242.17 134.053 259.676 150.333 259.676 171.923V208.64C259.676 249.413 250.145 287.146 181.024 287.146ZM59.2004 197.012C59.2187 197.03 82.9609 222.75 90.6979 231.503C116.931 261.133 137.386 280.553 181.024 280.553C240.833 280.553 253.084 251.803 253.084 208.64V171.923C253.084 154.087 238.407 140.637 218.949 140.637H155.661C153.839 140.637 152.365 139.162 152.365 137.34V64.0995C152.365 55.1264 146.322 49.0924 137.331 49.0832C128.367 49.0924 122.333 55.1264 122.333 64.0995V206.021C122.333 207.386 121.49 208.613 120.208 209.107C118.936 209.601 117.48 209.244 116.573 208.201C116.299 207.898 89.2604 177.362 78.5018 169.094C70.0322 162.602 54.7962 162.932 45.8872 167.336C42.1057 169.195 39.9356 171.576 39.9356 173.846C40.4575 176.355 49.6687 186.482 54.6131 191.93L59.2004 197.012ZM98.4807 107.399C86.1381 96.4668 79.0603 80.6814 79.0603 64.0995C79.0603 31.9885 105.183 5.86572 137.294 5.86572C169.405 5.86572 195.528 31.9885 195.528 64.0995C195.528 80.6814 188.45 96.4577 176.107 107.399L171.722 102.464C182.654 92.7768 188.926 78.7953 188.926 64.0995C188.926 35.6235 165.77 12.4582 137.285 12.4582C108.809 12.4582 85.6436 35.6235 85.6436 64.0995C85.6436 78.7953 91.9157 92.786 102.848 102.464L98.4807 107.399Z" fill="#63A1FF"/>
</g>
<defs>
<clipPath id="clip0_3803_22650">
<rect width="293" height="293" fill="white"/>
</clipPath>
</defs>
</svg>
