<svg width="264" height="264" viewBox="0 0 264 264" fill="none" xmlns="http://www.w3.org/2000/svg">
<g clip-path="url(#clip0_3803_22644)">
<path d="M65.8103 258.706C61.3388 258.706 56.9415 257.155 53.3857 254.251C46.1258 248.319 44.4015 237.355 49.3845 228.733L88.1265 161.628L93.2745 164.59L54.5325 231.703C50.9933 237.825 52.1152 245.539 57.1478 249.639C60.3322 252.238 64.251 253.269 68.244 252.551C72.1545 251.833 75.537 249.449 77.5253 246.009L116.721 178.128L121.861 181.09L82.6732 248.971C79.8187 253.929 74.9513 257.361 69.3165 258.392C68.1368 258.607 66.9653 258.706 65.8103 258.706ZM148.508 258.689C144.037 258.689 139.648 257.138 136.084 254.218C128.832 248.294 127.108 237.33 132.083 228.717L154.902 189.183L111.037 163.855C100.361 157.693 94.2728 145.92 95.205 133.825C88.5307 132.159 83.5807 126.112 83.5807 118.934V73.5592C83.5807 62.8259 92.3175 54.0892 103.051 54.0892H153.962C149.655 45.8062 149.729 35.6752 154.514 27.3922C162.162 14.1592 179.141 9.59691 192.382 17.2447C198.792 20.9489 203.379 26.9302 205.293 34.0829C207.207 41.2357 206.225 48.7019 202.521 55.1204C198.346 62.3474 191.317 67.1902 183.34 68.5927C185.097 71.0512 186.458 73.6499 187.44 76.3229L213.015 91.0904L230.092 61.5059C234.316 54.1799 243.721 51.6554 251.048 55.8877C258.382 60.1199 260.89 69.5249 256.666 76.8509L233.978 116.146C228.616 125.427 216.661 128.628 207.38 123.274L181.376 108.259L166.361 134.263L161.221 131.293L179.784 99.1424C185.823 88.6731 184.099 77.0737 175.18 68.0977C174.314 67.2314 174.067 65.9114 174.57 64.7977C175.081 63.6839 176.088 62.9414 177.441 63.0404C185.559 63.4117 193.273 59.2784 197.39 52.1587C200.302 47.1179 201.069 41.2522 199.568 35.6339C198.066 30.0157 194.461 25.3214 189.428 22.4009C179.017 16.3949 165.685 19.9754 159.671 30.3787C155.141 38.2327 155.983 48.2069 161.774 55.1782C162.22 55.7144 162.459 56.3827 162.459 57.0757C162.459 60.0457 162.459 60.0457 103.059 60.0457C95.601 60.0457 89.529 66.1177 89.529 73.5757V118.951C89.529 124.132 93.753 128.356 98.934 128.356C104.115 128.356 108.339 124.132 108.339 118.951V82.3784C108.339 80.7367 109.667 79.4084 111.309 79.4084H140.357V85.3484H114.263V118.934C114.263 126.648 108.553 133.042 101.137 134.122C100.312 144.022 105.27 153.675 114.015 158.716L160.446 185.528C161.873 186.353 162.352 188.16 161.535 189.579L137.23 231.687C133.691 237.808 134.822 245.522 139.846 249.622C143.03 252.221 146.932 253.261 150.934 252.535C154.852 251.817 158.235 249.433 160.223 245.992L193.223 188.836C195.03 185.701 195.508 182.055 194.576 178.565C193.644 175.067 191.4 172.155 188.273 170.348L138.253 141.473L141.223 136.325L191.235 165.2C195.74 167.791 198.965 171.99 200.31 177.022C201.655 182.055 200.962 187.294 198.363 191.798L165.363 248.954C162.5 253.912 157.624 257.353 151.998 258.376C150.835 258.59 149.671 258.689 148.508 258.689ZM184.346 103.102L210.342 118.117C216.802 121.846 225.093 119.627 228.83 113.159L251.518 73.8644C254.1 69.3764 252.565 63.6097 248.077 61.0192C243.573 58.4369 237.831 59.9797 235.224 64.4594L216.661 96.6097C215.836 98.0369 214.021 98.5237 212.611 97.6987L189.156 84.1604C189.634 90.1747 188.249 96.3292 184.907 102.096L184.346 103.102ZM66 143.214H8.25V137.274H66V143.214ZM66 110.214H8.25V104.274H66V110.214ZM66 77.2139H8.25V71.2739H66V77.2139Z" fill="#63A1FF"/>
</g>
<defs>
<clipPath id="clip0_3803_22644">
<rect width="264" height="264" fill="white"/>
</clipPath>
</defs>
</svg>
