<svg width="292" height="292" viewBox="0 0 292 292" fill="none" xmlns="http://www.w3.org/2000/svg">
<g clip-path="url(#clip0_3803_22647)">
<path d="M286.166 237.256H279.596V158.616C279.596 134.663 263.335 114.068 240.048 108.548C238.679 108.219 237.666 107.06 237.539 105.655C237.411 104.25 238.186 102.927 239.473 102.352C249.547 97.8713 256.053 87.8612 256.053 76.8473C256.053 61.4443 243.534 48.9157 228.131 48.9157C212.728 48.9157 200.208 61.4443 200.208 76.8473C200.208 87.8612 206.714 97.8713 216.788 102.352C218.394 103.073 219.152 104.916 218.504 106.558C217.856 108.192 216.049 109.04 214.379 108.456C187.196 99.1397 173.07 87.2772 162.659 76.7013C161.746 81.0357 159.054 85.5252 154.638 90.1242C153.452 91.347 152.092 92.7613 150.586 94.3035C164.63 108.684 184.833 129.179 184.833 129.179C185.444 129.791 185.782 130.621 185.782 131.488V237.256H179.221V132.838C175.087 128.641 158.242 111.55 146.006 99.012C133.769 111.55 116.924 128.641 112.791 132.838V237.256H106.221V131.488C106.221 130.621 106.558 129.791 107.17 129.179C107.17 129.179 137.948 97.9717 149.92 85.5526C154.364 80.9353 156.572 76.7652 156.454 73.1426C156.381 70.688 155.185 68.3885 152.913 66.2988C150.596 64.1727 145.778 59.738 135.576 70.542L133.924 72.294C122.965 83.9557 110.537 97.1687 77.6138 108.447C75.9348 109.022 74.1281 108.173 73.4893 106.549C72.8506 104.907 73.608 103.063 75.2048 102.343C85.288 97.8622 91.8032 87.8521 91.8032 76.8382C91.8123 61.4443 79.2837 48.9157 63.8807 48.9157C48.4777 48.9157 35.9491 61.4443 35.9491 76.8382C35.9491 87.8521 42.4643 97.8622 52.5475 102.343C53.8341 102.917 54.6097 104.241 54.482 105.646C54.3542 107.051 53.3413 108.21 51.9726 108.538C28.6856 114.068 12.4157 134.654 12.4157 158.616V237.256H5.8457V158.616C5.8457 134.18 20.8472 112.855 43.1487 104.396C34.6077 97.9626 29.3882 87.8065 29.3882 76.8382C29.3882 57.8217 44.8642 42.3457 63.8807 42.3457C82.8972 42.3457 98.3732 57.8217 98.3732 76.8382C98.3732 83.4538 96.4752 89.7775 93.0898 95.1612C111.705 86.3373 120.529 76.9386 129.134 67.7862L130.794 66.0251C140.522 55.7321 149.473 54.1991 157.348 61.4535C158.251 62.2747 159.045 63.1416 159.739 64.045L161.746 66.1802C170.497 75.5151 180.17 85.8355 198.812 94.9605C195.5 89.6315 193.638 83.3808 193.638 76.8382C193.638 57.8217 209.114 42.3457 228.131 42.3457C247.147 42.3457 262.623 57.8217 262.623 76.8382C262.623 87.7973 257.404 97.9535 248.863 104.387C271.155 112.845 286.166 134.18 286.166 158.607V237.256Z" fill="#63A1FF"/>
</g>
<defs>
<clipPath id="clip0_3803_22647">
<rect width="292" height="292" fill="white"/>
</clipPath>
</defs>
</svg>
