<svg width="329" height="328" viewBox="0 0 329 328" fill="none" xmlns="http://www.w3.org/2000/svg">
<circle cx="164.887" cy="164" r="164" fill="#121212"/>
<circle cx="198.157" cy="76.7159" r="14.4821" fill="#63A1FF" fill-opacity="0.1" stroke="#63A1FF" stroke-width="2.34845"/>
<circle cx="132.4" cy="248.153" r="14.4821" fill="#63A1FF" fill-opacity="0.1" stroke="#63A1FF" stroke-width="2.34845"/>
<circle cx="110.09" cy="164.783" r="38.358" fill="#FFC42D" fill-opacity="0.05" stroke="#FFC42D" stroke-width="2.34845"/>
<circle cx="220.467" cy="160.086" r="38.358" fill="#FFC42D" fill-opacity="0.05" stroke="#FFC42D" stroke-width="2.34845"/>
<g clip-path="url(#clip0_660_15536)">
<path d="M221.02 175.283C222.491 175.283 223.683 174.091 223.683 172.62C223.683 171.15 222.491 169.958 221.02 169.958C219.55 169.958 218.358 171.15 218.358 172.62C218.358 174.091 219.55 175.283 221.02 175.283Z" fill="#FFC42D"/>
<path d="M213.657 164.944L215.539 166.825C217.014 165.42 218.972 164.635 221.01 164.633C223.047 164.631 225.007 165.411 226.485 166.813L228.367 164.931C226.39 163.029 223.752 161.968 221.009 161.971C218.266 161.973 215.631 163.039 213.657 164.944V164.944Z" fill="#FFC42D"/>
<path d="M208.016 159.299L209.897 161.18C212.868 158.276 216.858 156.648 221.013 156.646C225.168 156.643 229.159 158.266 232.134 161.167L234.015 159.285C230.542 155.885 225.873 153.981 221.012 153.984C216.151 153.986 211.485 155.894 208.015 159.299L208.016 159.299Z" fill="#FFC42D"/>
<path d="M239.657 153.64C234.69 148.742 227.995 145.997 221.02 145.997C214.045 145.997 207.35 148.742 202.384 153.64V153.669L204.253 155.539C208.718 151.133 214.738 148.662 221.011 148.66C227.283 148.657 233.305 151.123 237.774 155.526L239.657 153.642V153.64Z" fill="#FFC42D"/>
</g>
<g clip-path="url(#clip1_660_15536)">
<path d="M128.399 159.769L118.105 156.071L113.804 150.668C113.429 150.211 112.958 149.842 112.424 149.59C111.89 149.337 111.306 149.207 110.715 149.208H100.071C99.4196 149.208 98.7785 149.367 98.203 149.671C97.6276 149.976 97.1354 150.416 96.7692 150.954L93.1598 156.257C92.4077 157.36 92.0058 158.665 92.0067 160.001V170.507C92.0067 170.86 92.147 171.199 92.3966 171.449C92.6463 171.698 92.9848 171.838 93.3379 171.838H96.1894C96.4797 172.98 97.1422 173.993 98.0723 174.716C99.0023 175.439 100.147 175.832 101.325 175.832C102.503 175.832 103.648 175.439 104.578 174.716C105.508 173.993 106.17 172.98 106.461 171.838H114.826C115.116 172.98 115.779 173.993 116.709 174.716C117.639 175.439 118.783 175.832 119.962 175.832C121.14 175.832 122.284 175.439 123.214 174.716C124.144 173.993 124.807 172.98 125.097 171.838H127.949C128.302 171.838 128.64 171.698 128.89 171.449C129.14 171.199 129.28 170.86 129.28 170.507V161.023C129.28 160.748 129.195 160.481 129.038 160.256C128.88 160.032 128.657 159.862 128.399 159.769ZM101.325 173.17C100.798 173.17 100.284 173.013 99.8459 172.721C99.4081 172.428 99.0668 172.013 98.8653 171.526C98.6638 171.04 98.6111 170.504 98.7138 169.988C98.8165 169.471 99.0701 168.997 99.4424 168.625C99.8148 168.252 100.289 167.999 100.806 167.896C101.322 167.793 101.857 167.846 102.344 168.048C102.83 168.249 103.246 168.59 103.539 169.028C103.831 169.466 103.987 169.981 103.987 170.507C103.986 171.213 103.706 171.89 103.207 172.389C102.707 172.888 102.031 173.169 101.325 173.17V173.17ZM119.962 173.17C119.435 173.17 118.92 173.013 118.482 172.721C118.045 172.428 117.703 172.013 117.502 171.526C117.3 171.04 117.248 170.504 117.35 169.988C117.453 169.471 117.707 168.997 118.079 168.625C118.451 168.252 118.926 167.999 119.442 167.896C119.959 167.793 120.494 167.846 120.98 168.048C121.467 168.249 121.883 168.59 122.175 169.028C122.468 169.466 122.624 169.981 122.624 170.507C122.623 171.213 122.342 171.89 121.843 172.389C121.344 172.888 120.667 173.169 119.962 173.17ZM126.618 169.176H125.097C124.807 168.034 124.144 167.022 123.214 166.298C122.284 165.575 121.14 165.183 119.962 165.183C118.783 165.183 117.639 165.575 116.709 166.298C115.779 167.022 115.116 168.034 114.826 169.176H106.461C106.17 168.034 105.508 167.022 104.578 166.298C103.648 165.575 102.503 165.183 101.325 165.183C100.147 165.183 99.0023 165.575 98.0723 166.298C97.1422 167.022 96.4797 168.034 96.1894 169.176H94.6691V160.001C94.6688 159.199 94.91 158.416 95.3613 157.753L98.9701 152.453C99.0921 152.274 99.2562 152.127 99.448 152.025C99.6398 151.924 99.8535 151.871 100.071 151.871H110.715C110.909 151.87 111.1 151.912 111.276 151.993C111.452 152.075 111.608 152.194 111.733 152.343L116.258 158.025C116.412 158.218 116.617 158.365 116.849 158.449L126.618 161.958V169.176Z" fill="#FFC42D"/>
</g>
<path d="M148.448 125.452C148.448 126.1 148.974 126.626 149.622 126.626H160.19C160.839 126.626 161.364 126.1 161.364 125.452C161.364 124.803 160.839 124.277 160.19 124.277H150.796V114.884C150.796 114.235 150.271 113.709 149.622 113.709C148.974 113.709 148.448 114.235 148.448 114.884V125.452ZM150.453 126.282L151.822 124.912L150.162 123.251L148.792 124.621L150.453 126.282ZM154.562 122.172L157.302 119.432L155.642 117.772L152.902 120.512L154.562 122.172ZM160.042 116.692L162.782 113.953L161.121 112.292L158.381 115.032L160.042 116.692ZM165.522 111.213L168.262 108.473L166.601 106.812L163.861 109.552L165.522 111.213ZM171.001 105.733L173.741 102.993L172.081 101.333L169.341 104.072L171.001 105.733ZM176.481 100.253L179.221 97.5135L177.56 95.8529L174.821 98.5927L176.481 100.253ZM181.961 94.7736L183.331 93.4037L181.67 91.7431L180.3 93.113L181.961 94.7736Z" fill="#63A1FF"/>
<path d="M182.109 199.618C182.109 198.97 181.583 198.444 180.935 198.444H170.367C169.718 198.444 169.193 198.97 169.193 199.618C169.193 200.267 169.718 200.792 170.367 200.792H179.761V210.186C179.761 210.835 180.286 211.36 180.935 211.36C181.583 211.36 182.109 210.835 182.109 210.186V199.618ZM148.887 233.327L150.257 231.957L148.596 230.296L147.226 231.666L148.887 233.327ZM152.997 229.217L155.737 226.477L154.076 224.816L151.336 227.556L152.997 229.217ZM158.476 223.737L161.216 220.997L159.556 219.337L156.816 222.077L158.476 223.737ZM163.956 218.257L166.696 215.518L165.035 213.857L162.296 216.597L163.956 218.257ZM169.436 212.778L172.176 210.038L170.515 208.377L167.775 211.117L169.436 212.778ZM174.916 207.298L177.655 204.558L175.995 202.898L173.255 205.637L174.916 207.298ZM180.395 201.818L181.765 200.448L180.105 198.788L178.735 200.158L180.395 201.818Z" fill="#63A1FF"/>
<defs>
<clipPath id="clip0_660_15536">
<rect width="42.5979" height="42.5979" fill="white" transform="translate(199.723 139.341)"/>
</clipPath>
<clipPath id="clip1_660_15536">
<rect width="42.5979" height="42.5979" fill="white" transform="translate(89.3455 138.559)"/>
</clipPath>
</defs>
</svg>
